solid OpenSCAD_Model
  facet normal -1 0 0
    outer loop
      vertex -17 -9 0
      vertex -17 0 4.5
      vertex -17 0 0
    endloop
  endfacet
  facet normal -1 -0 0
    outer loop
      vertex -17 0 4.5
      vertex -17 -9 0
      vertex -17 -9 4.5
    endloop
  endfacet
  facet normal 0 0 1
    outer loop
      vertex -12.5 0 4.5
      vertex -17 0 4.5
      vertex -12.5 -4.5 4.5
    endloop
  endfacet
  facet normal 0 0 1
    outer loop
      vertex 12.5 -4.5 4.5
      vertex 17 0 4.5
      vertex 12.5 0 4.5
    endloop
  endfacet
  facet normal 0 0 1
    outer loop
      vertex 17 0 4.5
      vertex 12.5 -4.5 4.5
      vertex 17 -9 4.5
    endloop
  endfacet
  facet normal -0 0 1
    outer loop
      vertex -12.5 -4.5 4.5
      vertex 17 -9 4.5
      vertex 12.5 -4.5 4.5
    endloop
  endfacet
  facet normal 0 0 1
    outer loop
      vertex -12.5 -4.5 4.5
      vertex -17 -9 4.5
      vertex 17 -9 4.5
    endloop
  endfacet
  facet normal 0 0 1
    outer loop
      vertex -17 -9 4.5
      vertex -12.5 -4.5 4.5
      vertex -17 0 4.5
    endloop
  endfacet
  facet normal 1 -0 0
    outer loop
      vertex 17 -9 4.5
      vertex 17 0 0
      vertex 17 0 4.5
    endloop
  endfacet
  facet normal 1 0 0
    outer loop
      vertex 17 0 0
      vertex 17 -9 4.5
      vertex 17 -9 0
    endloop
  endfacet
  facet normal 0 0 -1
    outer loop
      vertex -17 -9 0
      vertex 17 0 0
      vertex 17 -9 0
    endloop
  endfacet
  facet normal -0 0 -1
    outer loop
      vertex 17 0 0
      vertex -17 -9 0
      vertex -17 0 0
    endloop
  endfacet
  facet normal 0 -1 0
    outer loop
      vertex -17 -9 0
      vertex 17 -9 4.5
      vertex -17 -9 4.5
    endloop
  endfacet
  facet normal 0 -1 -0
    outer loop
      vertex 17 -9 4.5
      vertex -17 -9 0
      vertex 17 -9 0
    endloop
  endfacet
  facet normal 0 1 -0
    outer loop
      vertex 17 0 0
      vertex 12.5 0 4.5
      vertex 17 0 4.5
    endloop
  endfacet
  facet normal 0 1 0
    outer loop
      vertex 12.5 0 4.5
      vertex 17 0 0
      vertex -12.5 0 4.5
    endloop
  endfacet
  facet normal 0 1 0
    outer loop
      vertex -17 0 0
      vertex -12.5 0 4.5
      vertex 17 0 0
    endloop
  endfacet
  facet normal 0 1 0
    outer loop
      vertex -12.5 0 4.5
      vertex -17 0 0
      vertex -17 0 4.5
    endloop
  endfacet
  facet normal 0 1 -0
    outer loop
      vertex 12.5 0 4.5
      vertex -12.5 0 46.5
      vertex 12.5 0 46.5
    endloop
  endfacet
  facet normal 0 1 0
    outer loop
      vertex -12.5 0 46.5
      vertex 12.5 0 4.5
      vertex -12.5 0 4.5
    endloop
  endfacet
  facet normal -1 0 0
    outer loop
      vertex -12.5 -4.5 4.5
      vertex -12.5 0 46.5
      vertex -12.5 0 4.5
    endloop
  endfacet
  facet normal -1 -0 0
    outer loop
      vertex -12.5 0 46.5
      vertex -12.5 -4.5 4.5
      vertex -12.5 -4.5 46.5
    endloop
  endfacet
  facet normal -0 0 1
    outer loop
      vertex -12.5 0 46.5
      vertex 12.5 -4.5 46.5
      vertex 12.5 0 46.5
    endloop
  endfacet
  facet normal 0 0 1
    outer loop
      vertex 12.5 -4.5 46.5
      vertex -12.5 0 46.5
      vertex -12.5 -4.5 46.5
    endloop
  endfacet
  facet normal 1 -0 0
    outer loop
      vertex 12.5 -4.5 46.5
      vertex 12.5 0 4.5
      vertex 12.5 0 46.5
    endloop
  endfacet
  facet normal 1 0 0
    outer loop
      vertex 12.5 0 4.5
      vertex 12.5 -4.5 46.5
      vertex 12.5 -4.5 4.5
    endloop
  endfacet
  facet normal 0 -1 0
    outer loop
      vertex -12.5 -4.5 4.5
      vertex 12.5 -4.5 46.5
      vertex -12.5 -4.5 46.5
    endloop
  endfacet
  facet normal 0 -1 -0
    outer loop
      vertex 12.5 -4.5 46.5
      vertex -12.5 -4.5 4.5
      vertex 12.5 -4.5 4.5
    endloop
  endfacet
  facet normal -1 0 0
    outer loop
      vertex -17 33 0
      vertex -17 42 4.5
      vertex -17 42 0
    endloop
  endfacet
  facet normal -1 -0 0
    outer loop
      vertex -17 42 4.5
      vertex -17 33 0
      vertex -17 33 4.5
    endloop
  endfacet
  facet normal 0 0 1
    outer loop
      vertex -12.5 42 4.5
      vertex -17 42 4.5
      vertex -12.5 37.5 4.5
    endloop
  endfacet
  facet normal 0 0 1
    outer loop
      vertex 12.5 37.5 4.5
      vertex 17 42 4.5
      vertex 12.5 42 4.5
    endloop
  endfacet
  facet normal 0 0 1
    outer loop
      vertex 17 42 4.5
      vertex 12.5 37.5 4.5
      vertex 17 33 4.5
    endloop
  endfacet
  facet normal -0 0 1
    outer loop
      vertex -12.5 37.5 4.5
      vertex 17 33 4.5
      vertex 12.5 37.5 4.5
    endloop
  endfacet
  facet normal 0 0 1
    outer loop
      vertex -12.5 37.5 4.5
      vertex -17 33 4.5
      vertex 17 33 4.5
    endloop
  endfacet
  facet normal 0 0 1
    outer loop
      vertex -17 33 4.5
      vertex -12.5 37.5 4.5
      vertex -17 42 4.5
    endloop
  endfacet
  facet normal 1 -0 0
    outer loop
      vertex 17 33 4.5
      vertex 17 42 0
      vertex 17 42 4.5
    endloop
  endfacet
  facet normal 1 0 0
    outer loop
      vertex 17 42 0
      vertex 17 33 4.5
      vertex 17 33 0
    endloop
  endfacet
  facet normal 0 0 -1
    outer loop
      vertex -17 33 0
      vertex 17 42 0
      vertex 17 33 0
    endloop
  endfacet
  facet normal -0 0 -1
    outer loop
      vertex 17 42 0
      vertex -17 33 0
      vertex -17 42 0
    endloop
  endfacet
  facet normal 0 -1 0
    outer loop
      vertex -17 33 0
      vertex 17 33 4.5
      vertex -17 33 4.5
    endloop
  endfacet
  facet normal 0 -1 -0
    outer loop
      vertex 17 33 4.5
      vertex -17 33 0
      vertex 17 33 0
    endloop
  endfacet
  facet normal 0 1 -0
    outer loop
      vertex 17 42 0
      vertex 12.5 42 4.5
      vertex 17 42 4.5
    endloop
  endfacet
  facet normal 0 1 0
    outer loop
      vertex 12.5 42 4.5
      vertex 17 42 0
      vertex -12.5 42 4.5
    endloop
  endfacet
  facet normal 0 1 0
    outer loop
      vertex -17 42 0
      vertex -12.5 42 4.5
      vertex 17 42 0
    endloop
  endfacet
  facet normal 0 1 0
    outer loop
      vertex -12.5 42 4.5
      vertex -17 42 0
      vertex -17 42 4.5
    endloop
  endfacet
  facet normal 0 1 -0
    outer loop
      vertex 12.5 42 4.5
      vertex -12.5 42 46.5
      vertex 12.5 42 46.5
    endloop
  endfacet
  facet normal 0 1 0
    outer loop
      vertex -12.5 42 46.5
      vertex 12.5 42 4.5
      vertex -12.5 42 4.5
    endloop
  endfacet
  facet normal -1 0 0
    outer loop
      vertex -12.5 37.5 4.5
      vertex -12.5 42 46.5
      vertex -12.5 42 4.5
    endloop
  endfacet
  facet normal -1 -0 0
    outer loop
      vertex -12.5 42 46.5
      vertex -12.5 37.5 4.5
      vertex -12.5 37.5 46.5
    endloop
  endfacet
  facet normal -0 0 1
    outer loop
      vertex -12.5 42 46.5
      vertex 12.5 37.5 46.5
      vertex 12.5 42 46.5
    endloop
  endfacet
  facet normal 0 0 1
    outer loop
      vertex 12.5 37.5 46.5
      vertex -12.5 42 46.5
      vertex -12.5 37.5 46.5
    endloop
  endfacet
  facet normal 1 -0 0
    outer loop
      vertex 12.5 37.5 46.5
      vertex 12.5 42 4.5
      vertex 12.5 42 46.5
    endloop
  endfacet
  facet normal 1 0 0
    outer loop
      vertex 12.5 42 4.5
      vertex 12.5 37.5 46.5
      vertex 12.5 37.5 4.5
    endloop
  endfacet
  facet normal 0 -1 0
    outer loop
      vertex -12.5 37.5 4.5
      vertex 12.5 37.5 46.5
      vertex -12.5 37.5 46.5
    endloop
  endfacet
  facet normal 0 -1 -0
    outer loop
      vertex 12.5 37.5 46.5
      vertex -12.5 37.5 4.5
      vertex 12.5 37.5 4.5
    endloop
  endfacet
endsolid OpenSCAD_Model
