solid OpenSCAD_Model
  facet normal -1 0 0
    outer loop
      vertex -17 -9 0
      vertex -17 0 4.5
      vertex -17 0 0
    endloop
  endfacet
  facet normal -1 -0 0
    outer loop
      vertex -17 0 4.5
      vertex -17 -9 0
      vertex -17 -9 4.5
    endloop
  endfacet
  facet normal 0 0 1
    outer loop
      vertex -12.5 0 4.5
      vertex -17 0 4.5
      vertex -12.5 -4.5 4.5
    endloop
  endfacet
  facet normal 0 0 1
    outer loop
      vertex 12.5 -4.5 4.5
      vertex 17 0 4.5
      vertex 12.5 0 4.5
    endloop
  endfacet
  facet normal 0 0 1
    outer loop
      vertex 17 0 4.5
      vertex 12.5 -4.5 4.5
      vertex 17 -9 4.5
    endloop
  endfacet
  facet normal -0 0 1
    outer loop
      vertex -12.5 -4.5 4.5
      vertex 17 -9 4.5
      vertex 12.5 -4.5 4.5
    endloop
  endfacet
  facet normal 0 0 1
    outer loop
      vertex -12.5 -4.5 4.5
      vertex -17 -9 4.5
      vertex 17 -9 4.5
    endloop
  endfacet
  facet normal 0 0 1
    outer loop
      vertex -17 -9 4.5
      vertex -12.5 -4.5 4.5
      vertex -17 0 4.5
    endloop
  endfacet
  facet normal 1 -0 0
    outer loop
      vertex 17 -9 4.5
      vertex 17 0 0
      vertex 17 0 4.5
    endloop
  endfacet
  facet normal 1 0 0
    outer loop
      vertex 17 0 0
      vertex 17 -9 4.5
      vertex 17 -9 0
    endloop
  endfacet
  facet normal 0 0 -1
    outer loop
      vertex -17 -9 0
      vertex 17 0 0
      vertex 17 -9 0
    endloop
  endfacet
  facet normal -0 0 -1
    outer loop
      vertex 17 0 0
      vertex -17 -9 0
      vertex -17 0 0
    endloop
  endfacet
  facet normal 0 -1 0
    outer loop
      vertex -17 -9 0
      vertex 17 -9 4.5
      vertex -17 -9 4.5
    endloop
  endfacet
  facet normal 0 -1 -0
    outer loop
      vertex 17 -9 4.5
      vertex -17 -9 0
      vertex 17 -9 0
    endloop
  endfacet
  facet normal 0 1 -0
    outer loop
      vertex 17 0 0
      vertex 12.5 0 4.5
      vertex 17 0 4.5
    endloop
  endfacet
  facet normal 0 1 0
    outer loop
      vertex 12.5 0 4.5
      vertex 17 0 0
      vertex -12.5 0 4.5
    endloop
  endfacet
  facet normal 0 1 0
    outer loop
      vertex -17 0 0
      vertex -12.5 0 4.5
      vertex 17 0 0
    endloop
  endfacet
  facet normal 0 1 0
    outer loop
      vertex -12.5 0 4.5
      vertex -17 0 0
      vertex -17 0 4.5
    endloop
  endfacet
  facet normal 0 1 -0
    outer loop
      vertex 12.5 0 4.5
      vertex -12.5 0 24.5
      vertex 12.5 0 24.5
    endloop
  endfacet
  facet normal 0 1 0
    outer loop
      vertex -12.5 0 24.5
      vertex 12.5 0 4.5
      vertex -12.5 0 4.5
    endloop
  endfacet
  facet normal -1 0 0
    outer loop
      vertex -12.5 -4.5 4.5
      vertex -12.5 0 24.5
      vertex -12.5 0 4.5
    endloop
  endfacet
  facet normal -1 -0 0
    outer loop
      vertex -12.5 0 24.5
      vertex -12.5 -4.5 4.5
      vertex -12.5 -4.5 24.5
    endloop
  endfacet
  facet normal -0 0 1
    outer loop
      vertex -12.5 0 24.5
      vertex 12.5 -4.5 24.5
      vertex 12.5 0 24.5
    endloop
  endfacet
  facet normal 0 0 1
    outer loop
      vertex 12.5 -4.5 24.5
      vertex -12.5 0 24.5
      vertex -12.5 -4.5 24.5
    endloop
  endfacet
  facet normal 1 -0 0
    outer loop
      vertex 12.5 -4.5 24.5
      vertex 12.5 0 4.5
      vertex 12.5 0 24.5
    endloop
  endfacet
  facet normal 1 0 0
    outer loop
      vertex 12.5 0 4.5
      vertex 12.5 -4.5 24.5
      vertex 12.5 -4.5 4.5
    endloop
  endfacet
  facet normal 0 -1 0
    outer loop
      vertex -12.5 -4.5 4.5
      vertex 12.5 -4.5 24.5
      vertex -12.5 -4.5 24.5
    endloop
  endfacet
  facet normal 0 -1 -0
    outer loop
      vertex 12.5 -4.5 24.5
      vertex -12.5 -4.5 4.5
      vertex 12.5 -4.5 4.5
    endloop
  endfacet
  facet normal -1 0 0
    outer loop
      vertex -17 11 0
      vertex -17 20 4.5
      vertex -17 20 0
    endloop
  endfacet
  facet normal -1 -0 0
    outer loop
      vertex -17 20 4.5
      vertex -17 11 0
      vertex -17 11 4.5
    endloop
  endfacet
  facet normal 0 0 1
    outer loop
      vertex -12.5 20 4.5
      vertex -17 20 4.5
      vertex -12.5 15.5 4.5
    endloop
  endfacet
  facet normal 0 0 1
    outer loop
      vertex 12.5 15.5 4.5
      vertex 17 20 4.5
      vertex 12.5 20 4.5
    endloop
  endfacet
  facet normal 0 0 1
    outer loop
      vertex 17 20 4.5
      vertex 12.5 15.5 4.5
      vertex 17 11 4.5
    endloop
  endfacet
  facet normal -0 0 1
    outer loop
      vertex -12.5 15.5 4.5
      vertex 17 11 4.5
      vertex 12.5 15.5 4.5
    endloop
  endfacet
  facet normal 0 0 1
    outer loop
      vertex -12.5 15.5 4.5
      vertex -17 11 4.5
      vertex 17 11 4.5
    endloop
  endfacet
  facet normal 0 0 1
    outer loop
      vertex -17 11 4.5
      vertex -12.5 15.5 4.5
      vertex -17 20 4.5
    endloop
  endfacet
  facet normal 1 -0 0
    outer loop
      vertex 17 11 4.5
      vertex 17 20 0
      vertex 17 20 4.5
    endloop
  endfacet
  facet normal 1 0 0
    outer loop
      vertex 17 20 0
      vertex 17 11 4.5
      vertex 17 11 0
    endloop
  endfacet
  facet normal 0 0 -1
    outer loop
      vertex -17 11 0
      vertex 17 20 0
      vertex 17 11 0
    endloop
  endfacet
  facet normal -0 0 -1
    outer loop
      vertex 17 20 0
      vertex -17 11 0
      vertex -17 20 0
    endloop
  endfacet
  facet normal 0 -1 0
    outer loop
      vertex -17 11 0
      vertex 17 11 4.5
      vertex -17 11 4.5
    endloop
  endfacet
  facet normal 0 -1 -0
    outer loop
      vertex 17 11 4.5
      vertex -17 11 0
      vertex 17 11 0
    endloop
  endfacet
  facet normal 0 1 -0
    outer loop
      vertex 17 20 0
      vertex 12.5 20 4.5
      vertex 17 20 4.5
    endloop
  endfacet
  facet normal 0 1 0
    outer loop
      vertex 12.5 20 4.5
      vertex 17 20 0
      vertex -12.5 20 4.5
    endloop
  endfacet
  facet normal 0 1 0
    outer loop
      vertex -17 20 0
      vertex -12.5 20 4.5
      vertex 17 20 0
    endloop
  endfacet
  facet normal 0 1 0
    outer loop
      vertex -12.5 20 4.5
      vertex -17 20 0
      vertex -17 20 4.5
    endloop
  endfacet
  facet normal 0 1 -0
    outer loop
      vertex 12.5 20 4.5
      vertex -12.5 20 24.5
      vertex 12.5 20 24.5
    endloop
  endfacet
  facet normal 0 1 0
    outer loop
      vertex -12.5 20 24.5
      vertex 12.5 20 4.5
      vertex -12.5 20 4.5
    endloop
  endfacet
  facet normal -1 0 0
    outer loop
      vertex -12.5 15.5 4.5
      vertex -12.5 20 24.5
      vertex -12.5 20 4.5
    endloop
  endfacet
  facet normal -1 -0 0
    outer loop
      vertex -12.5 20 24.5
      vertex -12.5 15.5 4.5
      vertex -12.5 15.5 24.5
    endloop
  endfacet
  facet normal -0 0 1
    outer loop
      vertex -12.5 20 24.5
      vertex 12.5 15.5 24.5
      vertex 12.5 20 24.5
    endloop
  endfacet
  facet normal 0 0 1
    outer loop
      vertex 12.5 15.5 24.5
      vertex -12.5 20 24.5
      vertex -12.5 15.5 24.5
    endloop
  endfacet
  facet normal 1 -0 0
    outer loop
      vertex 12.5 15.5 24.5
      vertex 12.5 20 4.5
      vertex 12.5 20 24.5
    endloop
  endfacet
  facet normal 1 0 0
    outer loop
      vertex 12.5 20 4.5
      vertex 12.5 15.5 24.5
      vertex 12.5 15.5 4.5
    endloop
  endfacet
  facet normal 0 -1 0
    outer loop
      vertex -12.5 15.5 4.5
      vertex 12.5 15.5 24.5
      vertex -12.5 15.5 24.5
    endloop
  endfacet
  facet normal 0 -1 -0
    outer loop
      vertex 12.5 15.5 24.5
      vertex -12.5 15.5 4.5
      vertex 12.5 15.5 4.5
    endloop
  endfacet
endsolid OpenSCAD_Model
